- 
http://www.Speed.Cd
 
http://www.Speed.Cd       the fast  and The Hottest Private Tracker on the net

Please Seed back to make the speed Faster!!
 ............ NFO .............
-[IMG]http://i.imgur.com/l3GSLWH.jpg[/IMG]

Source: SKA

^^ I resized to get a better AR, lowered sat, contrast, highered brightness a touch, messed with levels and added slight sharpen.  there is a bit of movememnt and the audio is a bit loud but cant complain.
 
http://www.imdb.com/title/tt0765446/

Astronaut Scorch Supernova finds himself caught in a trap when he responds to an SOS from a notoriously dangerous alien planet.

General
Complete name                            : Escape from Planet Earth 2013 CAM x264 AAC-OFFLiNE.mp4
Format                                   : MPEG-4
Format profile                           : Base Media
Codec ID                                 : isom
File size                                : 701 MiB
Duration                                 : 1h 21mn
Overall bit rate mode                    : Variable
Overall bit rate                         : 1 199 Kbps
Encoded date                             : UTC 2013-03-03 15:27:13
Tagged date                              : UTC 2013-03-03 15:27:13

Video
ID                                       : 1
Format                                   : AVC
Format/Info                              : Advanced Video Codec
Format profile                           : High@L4.1
Format settings, CABAC                   : Yes
Format settings, ReFrames                : 3 frames
Codec ID                                 : avc1
Codec ID/Info                            : Advanced Video Coding
Duration                                 : 1h 21mn
Bit rate mode                            : Variable
Bit rate                                 : 1 117 Kbps
Maximum bit rate                         : 40.0 Mbps
Width                                    : 592 pixels
Height                                   : 284 pixels
Display aspect ratio                     : 2.085
Frame rate mode                          : Constant
Frame rate                               : 23.976 fps
Color space                              : YUV
Chroma subsampling                       : 4:2:0
Bit depth                                : 8 bits
Scan type                                : Progressive
Bits/(Pixel*Frame)                       : 0.277
Stream size                              : 652 MiB (93%)
Writing library                          : x264 core 130 r2273 b3065e6

Audio
ID                                       : 2
Format                                   : AAC
Format/Info                              : Advanced Audio Codec
Format profile                           : LC
Codec ID                                 : 40
Duration                                 : 1h 21mn
Bit rate mode                            : Variable
Bit rate                                 : 78.4 Kbps
Maximum bit rate                         : 93.5 Kbps
Channel(s)                               : 2 channels
Channel positions                        : Front: L R
Sampling rate                            : 48.0 KHz
Compression mode                         : Lossy
Stream size                              : 45.8 MiB (7%)
Language                                 : English
Encoded date                             : UTC 2013-03-03 13:08:33
Tagged date                              : UTC 2013-03-03 15:27:44

[img]http://i.imgur.com/CIAhAqk.png[/img]
[img]http://i.imgur.com/Pk3afw3.png[/img]
[img]http://i.imgur.com/JqKONJD.png[/img]
[img]http://i.imgur.com/OApAFCG.png[/img]
[img]http://i.imgur.com/ldyXguN.png[/img]
[img]http://i.imgur.com/erFQHHA.png[/img]
[img]http://i.imgur.com/F9xOUne.png[/img]
[img]http://i.imgur.com/DSlNiRc.png[/img]

Greets: To Our Friends